<svg id="Camada_1" data-name="Camada 1" xmlns="http://www.w3.org/2000/svg" viewBox="0 0 126 32"><circle cx="17.01" cy="16.68" r="13.45" style="fill:#fff"/><path d="M18.74,20.53c0-.39,0-.77,0-1.15a.46.46,0,0,0-.43-.45.49.49,0,0,0-.51.37,1,1,0,0,0-.05.3c0,.56,0,1.11,0,1.66a2,2,0,0,0,.08.49.43.43,0,0,0,.41.32.44.44,0,0,0,.47-.26,1.09,1.09,0,0,0,.06-.36c0-.31,0-.61,0-.92Z" style="fill:#075691"/><path d="M20.44,6.91c-.15-.13-.36-.21-.44-.37a.45.45,0,0,0-.42-.24,1.71,1.71,0,0,0-.45,0c-.11,0-.3,0-.29.13s.18.14.3.12a1.23,1.23,0,0,1,.94.27l.57.45,0,0A2.37,2.37,0,0,0,20.44,6.91Z" style="fill:#075691"/><path d="M24.65,19a.48.48,0,0,0-.7.46c0,.74,0,1.48,0,2.22A1.35,1.35,0,0,0,24,22c.06.3.21.43.49.42a.43.43,0,0,0,.45-.44c.05-.43.07-.86.1-1.28l-.09-1.32A.48.48,0,0,0,24.65,19Z" style="fill:#075691"/><path d="M10,20.87a.43.43,0,0,0-.39.29,1.38,1.38,0,0,0-.08.94.51.51,0,0,0,.9.16.82.82,0,0,0,.13-.37c0-.33,0-.66,0-1C10.31,20.87,10.13,20.86,10,20.87Z" style="fill:#075691"/><path d="M17.23,1a15,15,0,1,0,15,15A15,15,0,0,0,17.23,1Zm8.51,9.44a7.52,7.52,0,0,1-.1,2,4.38,4.38,0,0,1-.16.47l-.14-.15c-.08-.09-.13-.22-.22-.27-.35-.2-.34-.46-.21-.79a1.14,1.14,0,0,0,0-.85.93.93,0,0,1,.15-1c.12-.16.22-.33.32-.49A1.77,1.77,0,0,1,25.74,10.44ZM10.22,25.92a2.71,2.71,0,0,0-.16.37A12.1,12.1,0,0,1,6.32,9.54l.42.36c-.27.54-.57,1-.79,1.58a11.31,11.31,0,0,0,.25,9.71,11.11,11.11,0,0,0,3.94,4.47C10.26,25.73,10.29,25.79,10.22,25.92Zm1.2-2.56a4.14,4.14,0,0,0-.61,0c-.18,0-.27,0-.23-.23,0,0,0-.07,0-.12l-.05,0a1.12,1.12,0,0,1-1.28.35,1.17,1.17,0,0,1-.84-1,2.18,2.18,0,0,1,.25-1.67,1.39,1.39,0,0,1,1.13-.61c.24,0,.47,0,.75,0a5.76,5.76,0,0,0,0-.75.44.44,0,0,0-.49-.41.51.51,0,0,0-.46.43l0,.19h-1a1.26,1.26,0,0,1,.53-1.29,1.69,1.69,0,0,1,2.21.25,1.69,1.69,0,0,1,.34,1c0,1.21,0,2.42,0,3.63C11.62,23.3,11.59,23.37,11.42,23.36Zm0-8.22A6.51,6.51,0,0,1,10,16.52a6.85,6.85,0,0,0-2.13,2.09c-.12.18-.2.38-.3.56a.66.66,0,0,1-.19.18,3,3,0,0,1,.21-1.2,4.55,4.55,0,0,1,.94-1.58,8.23,8.23,0,0,0,.7-.92,1.61,1.61,0,0,1-1.54-.2,4.12,4.12,0,0,0,2-1.79l-.61.15,0-.06a3.74,3.74,0,0,0,.8-2.47,4.94,4.94,0,0,1,1-2.76,11.38,11.38,0,0,0,1.06-1.74,5.72,5.72,0,0,1,.41-.67c-.18,0-.18,0-.83.74a3.25,3.25,0,0,1,.7-1.34,1.89,1.89,0,0,1,1-.39c.4-.09.81-.14,1.23-.2l-.66-.24v0h.15a3.57,3.57,0,0,0,1.93-.28,2.08,2.08,0,0,1,1.45-.17c.41.1.84.09,1.25.16a1.48,1.48,0,0,1,1,.61s.07.12.13.22a1.79,1.79,0,0,1-1.21-.33,1.54,1.54,0,0,0-1.2-.36c-.5,0-1,.16-1.5.25a3,3,0,0,0-.67.19l.76.14a3,3,0,0,1-.52.21,8.86,8.86,0,0,1-1,.12,1.72,1.72,0,0,0-1.42.85l-.66,1.07c-.09.13-.19.25-.3.39h.31l-.29.36a2.44,2.44,0,0,0-.49,1.66c0,.33,0,.67,0,1l.48-.45a6,6,0,0,1-1.25,4,3.69,3.69,0,0,0,1.79-1.86A4.81,4.81,0,0,1,11.45,15.14Zm4.07,8.22a3.86,3.86,0,0,0-.68,0c-.16,0-.2-.06-.2-.2,0-1.16,0-2.31,0-3.47a1.94,1.94,0,0,0,0-.34.46.46,0,0,0-.46-.4.45.45,0,0,0-.49.38,1.12,1.12,0,0,0,0,.32c0,1.14,0,2.28,0,3.42v.28h-1s-.09-.11-.09-.17V18.58a.25.25,0,0,1,.22-.3l.82-.23,0,.33A1.16,1.16,0,0,1,14.77,18a1.13,1.13,0,0,1,.91.9,3.15,3.15,0,0,1,.06.61c0,1.21,0,2.42,0,3.63C15.76,23.31,15.7,23.37,15.52,23.36Zm4.34.1a3.55,3.55,0,0,1-.05.57,1.58,1.58,0,0,1-2,1.18,1.41,1.41,0,0,1-1.09-1c0-.13,0-.21.12-.24s.58-.16.88-.25c0,.1,0,.18.06.26a.48.48,0,0,0,.48.37.46.46,0,0,0,.47-.39,9.84,9.84,0,0,0,0-1.22,1,1,0,0,1-.84.33,1.1,1.1,0,0,1-1.1-.83A4.67,4.67,0,0,1,16.63,21a15,15,0,0,1,.06-1.77,2,2,0,0,1,.31-.83,1.13,1.13,0,0,1,1.66-.21.32.32,0,0,0,.37.07c.26-.09.52-.16.81-.24,0,.1,0,.16,0,.22Zm1.85-.12h-.62c-.17,0-.22-.05-.22-.22,0-1.09,0-2.17,0-3.26,0-.89,0-1.78,0-2.68a.23.23,0,0,1,.19-.26c.3-.07.59-.17.92-.27,0,.11,0,.17,0,.24C22,19,22,21,22,23.06,22,23.34,22,23.34,21.71,23.34Zm1.54-7.19a1.16,1.16,0,0,1-.88.07l.14,0a.78.78,0,0,0,.6-.79.39.39,0,0,0-.46-.42,3.64,3.64,0,0,0-.73.15.69.69,0,0,1-1-.68,4.27,4.27,0,0,1,.1-.79A1.49,1.49,0,0,0,20.46,15a.86.86,0,0,1-.72-.76l-.12.24-.09,0c-.05-.32-.09-.64-.15-1a2.5,2.5,0,0,0-.09-.25.84.84,0,0,1-.08-.34,1,1,0,0,1,.39-.63,3.49,3.49,0,0,1,1.26-.77l.15-.06a5.71,5.71,0,0,0-4.37,1,2.84,2.84,0,0,1,.52-1.82,4.26,4.26,0,0,0-1.85,2,6.17,6.17,0,0,1,.61-2.79l-.27,0A.52.52,0,0,1,15.17,9a4,4,0,0,1,1.09-1.59A1.84,1.84,0,0,1,16,7.37s-.12-.07-.12-.11A.2.2,0,0,1,16,7.1c.18-.09.38-.17.56-.27a2.85,2.85,0,0,0,.32-.21l-.17,0c-.28,0-.57-.07-.86-.09s-.72,0-1.08-.05a1.68,1.68,0,0,0-.45,0,.5.5,0,0,0-.44.56c0,.15,0,.31,0,.46a.94.94,0,0,1-.1.38,1.78,1.78,0,0,1-.1-1.26A.6.6,0,0,1,14,6.3c.47-.22.94-.42,1.41-.62a1.37,1.37,0,0,1,.46-.14l-.3.33a3.22,3.22,0,0,0,1.85.18l-.24-.14c.24-.15.45-.26.65-.4a1.23,1.23,0,0,1,.79-.22,5.07,5.07,0,0,1,1.67.42l1.15.4a.52.52,0,0,1,.41.7c-.05.28,0,.36.23.48.43.2.87.37,1.32.54a4.55,4.55,0,0,1,1.75,1l.08.09s0,0,0,.08a3.88,3.88,0,0,1-2.76.3.59.59,0,0,0,.66.61,1.47,1.47,0,0,1,1.51.91,1.34,1.34,0,0,1-.57,1.56,3,3,0,0,1-.39.22,4.2,4.2,0,0,0-1.25.75l.17-.55a2,2,0,0,0-.91,1.73l.86-.23a1.5,1.5,0,0,0,.71-.48c.22-.23.43-.48.67-.69a.83.83,0,0,1,1-.16.94.94,0,0,1,.52.93,2.15,2.15,0,0,1-.72,1.59,1.71,1.71,0,0,0-.59,1.3c-.18-.18-.21-.41-.12-1a2.25,2.25,0,0,1-1.45,1l.69-.6Zm-.32,6.13A7.79,7.79,0,0,1,22.82,20,5,5,0,0,1,23,18.87a1.23,1.23,0,0,1,1.22-.9A2.72,2.72,0,0,1,25,18a1.34,1.34,0,0,1,1,1.28c.06.47.08.94.12,1.47s-.06.95-.16,1.44a1.35,1.35,0,0,1-1.47,1.19A1.39,1.39,0,0,1,22.93,22.28Zm2.14,3.57a3.14,3.14,0,0,1-.24-.42s0-.14.08-.18a11.85,11.85,0,0,0,2.41-2.49,11.31,11.31,0,0,0,2.14-7.06A11.44,11.44,0,0,0,27.77,10L27.72,10l.44-.36A11.87,11.87,0,0,1,30,17.29,12,12,0,0,1,25.07,25.85Z" style="fill:#075691"/><path d="M20.2,8.4a.46.46,0,0,1-.42-.48c0-.35,0-.35-.37-.24a2.14,2.14,0,0,0-1.07.63.81.81,0,0,0,.89.08.58.58,0,0,1,.57,0,4.43,4.43,0,0,0,.45.2c.08,0,.17,0,.26-.05a1.46,1.46,0,0,0-.19-.16S20.24,8.41,20.2,8.4Z" style="fill:#075691"/><path d="M35.42,5.69a33.19,33.19,0,0,1,5.68-.44c2.62,0,4.46.28,6,1.28a4.62,4.62,0,0,1,2.21,4.06A4.74,4.74,0,0,1,46,15.08v.09a5.19,5.19,0,0,1,4,5.12,5.64,5.64,0,0,1-2,4.37c-1.47,1.28-3.91,2-7.87,2a31.69,31.69,0,0,1-4.74-.31Zm4.52,8.14h1.35c2.21,0,3.46-1.09,3.46-2.71s-1.06-2.53-3.09-2.53a6.6,6.6,0,0,0-1.72.16Zm0,9.33a10.9,10.9,0,0,0,1.53.06c2,0,3.78-.87,3.78-3.06s-1.78-3-3.9-3H39.94Z" style="fill:#075691"/><path d="M57.46,21.23l-1.31,5.21H51.53l5.83-21H63.2l5.8,21H64.23l-1.41-5.21Zm4.77-3.44-1.12-4.46c-.32-1.24-.66-3-1-4.27h-.06c-.28,1.28-.6,3.06-.91,4.27l-1.09,4.46Z" style="fill:#075691"/><path d="M75.28,5.41V18c0,3.46,1.25,5.05,3.28,5.05s3.31-1.49,3.31-5.05V5.41h4.55V17.54c0,6.18-2.9,9.21-8,9.21s-7.7-3-7.7-9.24V5.41Z" style="fill:#075691"/><path d="M90.36,5.69a35.69,35.69,0,0,1,5.77-.44c2.85,0,5,.44,6.43,1.66a5.27,5.27,0,0,1,1.87,4.4,5.54,5.54,0,0,1-3.59,5.17v.1c1.47.59,2.25,2,2.75,4a46.93,46.93,0,0,0,1.59,5.87H100.5a28.42,28.42,0,0,1-1.34-4.93c-.5-2.62-1.34-3.34-3.12-3.37H94.89v8.3H90.36Zm4.53,9.11h1.53c2.18,0,3.46-1.28,3.46-3.12s-1.12-3-3.21-3a9.37,9.37,0,0,0-1.78.13Z" style="fill:#075691"/><path d="M112.09,5.41V18c0,3.46,1.25,5.05,3.27,5.05s3.31-1.49,3.31-5.05V5.41h4.56V17.54c0,6.18-2.9,9.21-8,9.21s-7.71-3-7.71-9.24V5.41Z" style="fill:#075691"/></svg>