<svg id="Camada_1" data-name="Camada 1" xmlns="http://www.w3.org/2000/svg" viewBox="0 0 70.88 18"><circle cx="11.05" cy="9.36" r="7.17" style="fill:#fff"/><path d="M12,11.41c0-.2,0-.4,0-.61a.24.24,0,0,0-.23-.24.26.26,0,0,0-.27.2l0,.16v.89a1.27,1.27,0,0,0,0,.26.24.24,0,0,0,.22.17A.24.24,0,0,0,12,12.1a1.29,1.29,0,0,0,0-.19v-.5Z" style="fill:#075691"/><path d="M12.88,4.15c-.07-.07-.19-.11-.23-.19s-.14-.12-.23-.14a1,1,0,0,0-.24,0s-.15,0-.15.06.1.08.16.07a.63.63,0,0,1,.5.14l.31.24h0Z" style="fill:#075691"/><path d="M15.13,10.59c-.18-.09-.36,0-.37.25,0,.39,0,.79,0,1.18a1.1,1.1,0,0,0,0,.18c0,.17.12.23.27.23a.23.23,0,0,0,.24-.23c0-.23,0-.46.05-.69s0-.47-.05-.7A.25.25,0,0,0,15.13,10.59Z" style="fill:#075691"/><path d="M7.29,11.6a.25.25,0,0,0-.21.15.78.78,0,0,0,0,.5.24.24,0,0,0,.2.2.25.25,0,0,0,.28-.11.48.48,0,0,0,.07-.2c0-.17,0-.35,0-.54Z" style="fill:#075691"/><path d="M11.17,1a8,8,0,1,0,8,8A8,8,0,0,0,11.17,1Zm4.54,5a4,4,0,0,1-.05,1c0,.08-.06.16-.09.25a.22.22,0,0,1-.07-.07s-.07-.12-.12-.15-.18-.24-.11-.42a.58.58,0,0,0,0-.45.52.52,0,0,1,.08-.52,2.4,2.4,0,0,0,.18-.26A1,1,0,0,1,15.71,6ZM7.44,14.29a.93.93,0,0,0-.09.2,6.33,6.33,0,0,1-2.72-3.55,6.4,6.4,0,0,1,.72-5.38l.23.19c-.15.29-.3.56-.42.84a6.13,6.13,0,0,0,2.23,7.56C7.45,14.19,7.47,14.22,7.44,14.29Zm.64-1.37H7.75c-.1,0-.15,0-.13-.12s0,0,0-.06h0a.61.61,0,0,1-.69.18.62.62,0,0,1-.45-.53,1.16,1.16,0,0,1,.14-.89.75.75,0,0,1,.6-.33h.4c0-.15,0-.28,0-.4a.24.24,0,0,0-.26-.22.29.29,0,0,0-.25.23s0,.06,0,.1H6.53a.68.68,0,0,1,.29-.69A.89.89,0,0,1,8,10.34a.82.82,0,0,1,.18.54c0,.65,0,1.29,0,1.94C8.18,12.89,8.16,12.93,8.08,12.92Zm0-4.38a3.52,3.52,0,0,1-.8.74,3.74,3.74,0,0,0-1.13,1.11c-.06.1-.11.2-.16.3a.32.32,0,0,1-.1.1A1.52,1.52,0,0,1,6,10.15a2.32,2.32,0,0,1,.5-.84,5.85,5.85,0,0,0,.38-.49.92.92,0,0,1-.83-.11,2.16,2.16,0,0,0,1.08-1l-.33.08v0a2,2,0,0,0,.42-1.32A2.66,2.66,0,0,1,7.77,5a4.89,4.89,0,0,0,.56-.93c.06-.12.15-.24.22-.36-.09,0-.09,0-.44.4a1.85,1.85,0,0,1,.37-.71A1,1,0,0,1,9,3.2a6.49,6.49,0,0,1,.66-.11L9.33,3v0h.07a2,2,0,0,0,1-.15,1.11,1.11,0,0,1,.78-.09c.21,0,.44,0,.66.08a.76.76,0,0,1,.52.33l.07.11a1,1,0,0,1-.65-.17.77.77,0,0,0-.63-.19,7,7,0,0,0-.8.13,1.61,1.61,0,0,0-.36.1l.4.08a2,2,0,0,1-.28.11,4.69,4.69,0,0,1-.54.06.91.91,0,0,0-.76.46l-.35.57-.16.2h.17l-.16.19a1.34,1.34,0,0,0-.26.89c0,.18,0,.36,0,.54L8.33,6a3.19,3.19,0,0,1-.67,2.11,2,2,0,0,0,1-1A2.58,2.58,0,0,1,8.09,8.54Zm2.17,4.38H9.9c-.09,0-.11,0-.11-.1,0-.62,0-1.23,0-1.85a1.09,1.09,0,0,0,0-.18.25.25,0,0,0-.24-.22.26.26,0,0,0-.27.2,1.1,1.1,0,0,0,0,.18c0,.61,0,1.21,0,1.82v.15H8.72s-.05-.06-.05-.1V10.37a.13.13,0,0,1,.12-.15l.43-.13,0,.18a.62.62,0,0,1,.62-.21.61.61,0,0,1,.49.48,1.84,1.84,0,0,1,0,.33c0,.64,0,1.29,0,1.93C10.39,12.9,10.35,12.93,10.26,12.92Zm2.31.06c0,.1,0,.2,0,.3a.85.85,0,0,1-1.08.63.75.75,0,0,1-.58-.56c0-.06,0-.1.07-.12l.47-.13,0,.13a.25.25,0,0,0,.26.2.25.25,0,0,0,.25-.21,4.65,4.65,0,0,0,0-.65.49.49,0,0,1-.45.18.58.58,0,0,1-.58-.44,2.67,2.67,0,0,1-.1-.63,7.39,7.39,0,0,1,0-.94,1.11,1.11,0,0,1,.16-.45.61.61,0,0,1,.89-.11.16.16,0,0,0,.19,0l.44-.13v.12C12.57,11.13,12.58,12.06,12.57,13Zm1-.06h-.33c-.09,0-.12,0-.12-.12,0-.58,0-1.16,0-1.73s0-1,0-1.43c0-.08,0-.12.1-.14l.49-.15c0,.06,0,.09,0,.13v3.29C13.71,12.92,13.71,12.92,13.56,12.92Zm.83-3.84a.64.64,0,0,1-.48,0l.08,0a.41.41,0,0,0,.32-.42.22.22,0,0,0-.25-.23l-.38.08c-.31.08-.51,0-.53-.36a3,3,0,0,1,0-.42.78.78,0,0,0-.3.7.45.45,0,0,1-.39-.4l-.07.13,0,0c0-.17-.05-.34-.08-.52s0-.08-.05-.13a.39.39,0,0,1,0-.18A.51.51,0,0,1,12.44,7a1.9,1.9,0,0,1,.67-.4l.08,0a3,3,0,0,0-2.33.56,1.52,1.52,0,0,1,.28-1,2.23,2.23,0,0,0-1,1.07,3.24,3.24,0,0,1,.33-1.49h-.15a.28.28,0,0,1-.26-.41,2.08,2.08,0,0,1,.59-.85l-.14,0s-.06,0-.06-.06a.16.16,0,0,1,0-.09l.3-.14L11,4l-.09,0-.46-.05-.58,0a1,1,0,0,0-.24,0,.27.27,0,0,0-.23.3,1.93,1.93,0,0,1,0,.24.46.46,0,0,1-.05.2A1,1,0,0,1,9.28,4a.33.33,0,0,1,.17-.16c.24-.12.5-.23.75-.34a.84.84,0,0,1,.24-.07l-.16.18a1.74,1.74,0,0,0,1,.09l-.13-.07.35-.21a.59.59,0,0,1,.42-.12,2.77,2.77,0,0,1,.89.22c.2.08.41.15.61.21a.28.28,0,0,1,.22.38c0,.15,0,.19.13.26s.46.19.7.28a2.45,2.45,0,0,1,.93.52l0,0a.08.08,0,0,0,0,0A2.08,2.08,0,0,1,14,5.41a.31.31,0,0,0,.35.32.78.78,0,0,1,.81.49.71.71,0,0,1-.31.83l-.21.12a2.39,2.39,0,0,0-.67.39l.1-.29a1.06,1.06,0,0,0-.49.92L14,8.07a.82.82,0,0,0,.38-.25,4.21,4.21,0,0,1,.36-.37.44.44,0,0,1,.53-.09.51.51,0,0,1,.28.5,1.12,1.12,0,0,1-.38.84.94.94,0,0,0-.32.7c-.09-.1-.11-.22-.06-.53a1.19,1.19,0,0,1-.77.55l.36-.32Zm-.18,3.27a4.4,4.4,0,0,1-.06-1.2,2.59,2.59,0,0,1,.1-.62.65.65,0,0,1,.65-.48,1.5,1.5,0,0,1,.43,0,.73.73,0,0,1,.52.68c0,.25,0,.5.06.79a7.43,7.43,0,0,1-.09.76A.72.72,0,0,1,15,13,.76.76,0,0,1,14.21,12.35Zm1.14,1.9a1.64,1.64,0,0,1-.12-.22.11.11,0,0,1,0-.1,6.72,6.72,0,0,0,1.29-1.32,6.19,6.19,0,0,0,.23-6.79s0,0,0,0l.23-.2a6.31,6.31,0,0,1,1,4.11A6.4,6.4,0,0,1,15.35,14.25Z" style="fill:#075691"/><path d="M12.75,5a.25.25,0,0,1-.22-.26c0-.19,0-.19-.19-.13a1.23,1.23,0,0,0-.58.34.44.44,0,0,0,.48,0,.32.32,0,0,1,.3,0,2.44,2.44,0,0,0,.24.1.34.34,0,0,0,.14,0L12.82,5Z" style="fill:#075691"/><path d="M20.87,3.5a18.24,18.24,0,0,1,3-.23A5.53,5.53,0,0,1,27.08,4a2.46,2.46,0,0,1,1.18,2.16,2.54,2.54,0,0,1-1.76,2.4v.05a2.76,2.76,0,0,1,2.14,2.73,3,3,0,0,1-1,2.33c-.79.68-2.08,1.06-4.2,1.06a17.89,17.89,0,0,1-2.53-.16Zm2.42,4.34H24c1.18,0,1.85-.58,1.85-1.44s-.57-1.35-1.65-1.35a3.62,3.62,0,0,0-.91.08Zm0,5a6.05,6.05,0,0,0,.81,0c1.08,0,2-.46,2-1.63S25.17,9.61,24,9.61h-.75Z" style="fill:#075691"/><path d="M32.63,11.79l-.7,2.78H29.46L32.58,3.35h3.11l3.09,11.22H36.24l-.75-2.78ZM35.17,10l-.6-2.38c-.16-.67-.35-1.6-.51-2.28h0c-.15.68-.31,1.63-.48,2.28L33,10Z" style="fill:#075691"/><path d="M42.13,3.35v6.71c0,1.84.67,2.69,1.75,2.69s1.76-.8,1.76-2.69V3.35h2.43V9.82c0,3.3-1.54,4.91-4.26,4.91S39.7,13.15,39.7,9.81V3.35Z" style="fill:#075691"/><path d="M50.18,3.5a19.4,19.4,0,0,1,3.08-.23,5.21,5.21,0,0,1,3.42.88,2.8,2.8,0,0,1,1,2.35,3,3,0,0,1-1.91,2.76v.05a2.71,2.71,0,0,1,1.46,2.13,24.59,24.59,0,0,0,.85,3.13h-2.5a15.53,15.53,0,0,1-.71-2.63c-.27-1.4-.72-1.78-1.66-1.8h-.62v4.43H50.18Zm2.41,4.86h.82A1.64,1.64,0,0,0,55.25,6.7a1.5,1.5,0,0,0-1.71-1.59,5.23,5.23,0,0,0-.95.07Z" style="fill:#075691"/><path d="M61.76,3.35v6.71c0,1.84.67,2.69,1.75,2.69s1.76-.8,1.76-2.69V3.35H67.7V9.82c0,3.3-1.54,4.91-4.26,4.91s-4.11-1.58-4.11-4.92V3.35Z" style="fill:#075691"/></svg>